  0
SECTION
  2
BLOCKS
  0
ENDSEC
  0
SECTION
  2
ENTITIES
  0
LINE
  8
0
 10
159.451
 20
-9.80785
 11
161.327
 21
-9.23878
  0
LINE
  8
0
 10
161.327
 20
-9.23878
 11
163.056
 21
-8.31468
  0
LINE
  8
0
 10
163.056
 20
-8.31468
 11
164.571
 21
-7.07106
  0
LINE
  8
0
 10
164.571
 20
-7.07106
 11
165.815
 21
-5.55569
  0
LINE
  8
0
 10
165.815
 20
-5.55569
 11
166.739
 21
-3.82683
  0
LINE
  8
0
 10
166.739
 20
-3.82683
 11
167.308
 21
-1.9509
  0
LINE
  8
0
 10
167.308
 20
-1.9509
 11
167.5
 21
0
  0
LINE
  8
0
 10
167.5
 20
0
 11
167.5
 21
228.5
  0
LINE
  8
0
 10
167.5
 20
228.5
 11
167.308
 21
230.451
  0
LINE
  8
0
 10
167.308
 20
230.451
 11
166.739
 21
232.327
  0
LINE
  8
0
 10
166.739
 20
232.327
 11
165.815
 21
234.056
  0
LINE
  8
0
 10
165.815
 20
234.056
 11
164.571
 21
235.571
  0
LINE
  8
0
 10
164.571
 20
235.571
 11
163.056
 21
236.815
  0
LINE
  8
0
 10
163.056
 20
236.815
 11
161.327
 21
237.739
  0
LINE
  8
0
 10
161.327
 20
237.739
 11
159.451
 21
238.308
  0
LINE
  8
0
 10
159.451
 20
238.308
 11
157.5
 21
238.5
  0
LINE
  8
0
 10
157.5
 20
238.5
 11
0
 21
238.5
  0
LINE
  8
0
 10
0
 20
238.5
 11
-1.9509
 21
238.308
  0
LINE
  8
0
 10
-1.9509
 20
238.308
 11
-3.82683
 21
237.739
  0
LINE
  8
0
 10
-3.82683
 20
237.739
 11
-5.55569
 21
236.815
  0
LINE
  8
0
 10
-5.55569
 20
236.815
 11
-7.07106
 21
235.571
  0
LINE
  8
0
 10
-7.07106
 20
235.571
 11
-8.31468
 21
234.056
  0
LINE
  8
0
 10
-8.31468
 20
234.056
 11
-9.23878
 21
232.327
  0
LINE
  8
0
 10
-9.23878
 20
232.327
 11
-9.80785
 21
230.451
  0
LINE
  8
0
 10
-9.80785
 20
230.451
 11
-10
 21
228.5
  0
LINE
  8
0
 10
-10
 20
228.5
 11
-10
 21
0
  0
LINE
  8
0
 10
-10
 20
0
 11
-9.80785
 21
-1.9509
  0
LINE
  8
0
 10
-9.80785
 20
-1.9509
 11
-9.23878
 21
-3.82683
  0
LINE
  8
0
 10
-9.23878
 20
-3.82683
 11
-8.31468
 21
-5.55569
  0
LINE
  8
0
 10
-8.31468
 20
-5.55569
 11
-7.07106
 21
-7.07106
  0
LINE
  8
0
 10
-7.07106
 20
-7.07106
 11
-5.55569
 21
-8.31468
  0
LINE
  8
0
 10
-5.55569
 20
-8.31468
 11
-3.82683
 21
-9.23878
  0
LINE
  8
0
 10
-3.82683
 20
-9.23878
 11
-1.9509
 21
-9.80785
  0
LINE
  8
0
 10
-1.9509
 20
-9.80785
 11
0
 21
-10
  0
LINE
  8
0
 10
0
 20
-10
 11
157.5
 21
-10
  0
LINE
  8
0
 10
157.5
 20
-10
 11
159.451
 21
-9.80785
  0
LINE
  8
0
 10
136.512
 20
200.36
 11
134.592
 21
200.833
  0
LINE
  8
0
 10
134.592
 20
200.833
 11
132.842
 21
201.752
  0
LINE
  8
0
 10
132.842
 20
201.752
 11
131.362
 21
203.062
  0
LINE
  8
0
 10
131.362
 20
203.062
 11
130.239
 21
204.689
  0
LINE
  8
0
 10
130.239
 20
204.689
 11
129.538
 21
206.538
  0
LINE
  8
0
 10
129.538
 20
206.538
 11
129.3
 21
208.5
  0
LINE
  8
0
 10
129.3
 20
208.5
 11
129.538
 21
210.462
  0
LINE
  8
0
 10
129.538
 20
210.462
 11
130.239
 21
212.311
  0
LINE
  8
0
 10
130.239
 20
212.311
 11
131.362
 21
213.938
  0
LINE
  8
0
 10
131.362
 20
213.938
 11
132.842
 21
215.248
  0
LINE
  8
0
 10
132.842
 20
215.248
 11
134.592
 21
216.167
  0
LINE
  8
0
 10
134.592
 20
216.167
 11
136.512
 21
216.64
  0
LINE
  8
0
 10
136.512
 20
216.64
 11
138.488
 21
216.64
  0
LINE
  8
0
 10
138.488
 20
216.64
 11
140.408
 21
216.167
  0
LINE
  8
0
 10
140.408
 20
216.167
 11
142.158
 21
215.248
  0
LINE
  8
0
 10
142.158
 20
215.248
 11
143.638
 21
213.938
  0
LINE
  8
0
 10
143.638
 20
213.938
 11
144.761
 21
212.311
  0
LINE
  8
0
 10
144.761
 20
212.311
 11
145.462
 21
210.462
  0
LINE
  8
0
 10
145.462
 20
210.462
 11
145.7
 21
208.5
  0
LINE
  8
0
 10
145.7
 20
208.5
 11
145.462
 21
206.538
  0
LINE
  8
0
 10
145.462
 20
206.538
 11
144.761
 21
204.689
  0
LINE
  8
0
 10
144.761
 20
204.689
 11
143.638
 21
203.062
  0
LINE
  8
0
 10
143.638
 20
203.062
 11
142.158
 21
201.752
  0
LINE
  8
0
 10
142.158
 20
201.752
 11
140.408
 21
200.833
  0
LINE
  8
0
 10
140.408
 20
200.833
 11
138.488
 21
200.36
  0
LINE
  8
0
 10
138.488
 20
200.36
 11
136.512
 21
200.36
  0
ENDSEC
  0
SECTION
  2
OBJECTS
  0
DICTIONARY
  0
ENDSEC
  0
EOF
