  0
SECTION
  2
BLOCKS
  0
ENDSEC
  0
SECTION
  2
ENTITIES
  0
LINE
  8
0
 10
159.951
 20
-9.80785
 11
161.827
 21
-9.23878
  0
LINE
  8
0
 10
161.827
 20
-9.23878
 11
163.556
 21
-8.31468
  0
LINE
  8
0
 10
163.556
 20
-8.31468
 11
165.071
 21
-7.07106
  0
LINE
  8
0
 10
165.071
 20
-7.07106
 11
166.315
 21
-5.55569
  0
LINE
  8
0
 10
166.315
 20
-5.55569
 11
167.239
 21
-3.82683
  0
LINE
  8
0
 10
167.239
 20
-3.82683
 11
167.808
 21
-1.9509
  0
LINE
  8
0
 10
167.808
 20
-1.9509
 11
168
 21
0
  0
LINE
  8
0
 10
168
 20
0
 11
168
 21
229
  0
LINE
  8
0
 10
168
 20
229
 11
167.808
 21
230.951
  0
LINE
  8
0
 10
167.808
 20
230.951
 11
167.239
 21
232.827
  0
LINE
  8
0
 10
167.239
 20
232.827
 11
166.315
 21
234.556
  0
LINE
  8
0
 10
166.315
 20
234.556
 11
165.071
 21
236.071
  0
LINE
  8
0
 10
165.071
 20
236.071
 11
163.556
 21
237.315
  0
LINE
  8
0
 10
163.556
 20
237.315
 11
161.827
 21
238.239
  0
LINE
  8
0
 10
161.827
 20
238.239
 11
159.951
 21
238.808
  0
LINE
  8
0
 10
159.951
 20
238.808
 11
158
 21
239
  0
LINE
  8
0
 10
158
 20
239
 11
0
 21
239
  0
LINE
  8
0
 10
0
 20
239
 11
-1.9509
 21
238.808
  0
LINE
  8
0
 10
-1.9509
 20
238.808
 11
-3.82683
 21
238.239
  0
LINE
  8
0
 10
-3.82683
 20
238.239
 11
-5.55569
 21
237.315
  0
LINE
  8
0
 10
-5.55569
 20
237.315
 11
-7.07106
 21
236.071
  0
LINE
  8
0
 10
-7.07106
 20
236.071
 11
-8.31468
 21
234.556
  0
LINE
  8
0
 10
-8.31468
 20
234.556
 11
-9.23878
 21
232.827
  0
LINE
  8
0
 10
-9.23878
 20
232.827
 11
-9.80785
 21
230.951
  0
LINE
  8
0
 10
-9.80785
 20
230.951
 11
-10
 21
229
  0
LINE
  8
0
 10
-10
 20
229
 11
-10
 21
0
  0
LINE
  8
0
 10
-10
 20
0
 11
-9.80785
 21
-1.9509
  0
LINE
  8
0
 10
-9.80785
 20
-1.9509
 11
-9.23878
 21
-3.82683
  0
LINE
  8
0
 10
-9.23878
 20
-3.82683
 11
-8.31468
 21
-5.55569
  0
LINE
  8
0
 10
-8.31468
 20
-5.55569
 11
-7.07106
 21
-7.07106
  0
LINE
  8
0
 10
-7.07106
 20
-7.07106
 11
-5.55569
 21
-8.31468
  0
LINE
  8
0
 10
-5.55569
 20
-8.31468
 11
-3.82683
 21
-9.23878
  0
LINE
  8
0
 10
-3.82683
 20
-9.23878
 11
-1.9509
 21
-9.80785
  0
LINE
  8
0
 10
-1.9509
 20
-9.80785
 11
0
 21
-10
  0
LINE
  8
0
 10
0
 20
-10
 11
158
 21
-10
  0
LINE
  8
0
 10
158
 20
-10
 11
159.951
 21
-9.80785
  0
LINE
  8
0
 10
137.012
 20
200.86
 11
135.092
 21
201.333
  0
LINE
  8
0
 10
135.092
 20
201.333
 11
133.342
 21
202.252
  0
LINE
  8
0
 10
133.342
 20
202.252
 11
131.862
 21
203.562
  0
LINE
  8
0
 10
131.862
 20
203.562
 11
130.739
 21
205.189
  0
LINE
  8
0
 10
130.739
 20
205.189
 11
130.038
 21
207.038
  0
LINE
  8
0
 10
130.038
 20
207.038
 11
129.8
 21
209
  0
LINE
  8
0
 10
129.8
 20
209
 11
130.038
 21
210.962
  0
LINE
  8
0
 10
130.038
 20
210.962
 11
130.739
 21
212.811
  0
LINE
  8
0
 10
130.739
 20
212.811
 11
131.862
 21
214.438
  0
LINE
  8
0
 10
131.862
 20
214.438
 11
133.342
 21
215.748
  0
LINE
  8
0
 10
133.342
 20
215.748
 11
135.092
 21
216.667
  0
LINE
  8
0
 10
135.092
 20
216.667
 11
137.012
 21
217.14
  0
LINE
  8
0
 10
137.012
 20
217.14
 11
138.988
 21
217.14
  0
LINE
  8
0
 10
138.988
 20
217.14
 11
140.908
 21
216.667
  0
LINE
  8
0
 10
140.908
 20
216.667
 11
142.658
 21
215.748
  0
LINE
  8
0
 10
142.658
 20
215.748
 11
144.138
 21
214.438
  0
LINE
  8
0
 10
144.138
 20
214.438
 11
145.261
 21
212.811
  0
LINE
  8
0
 10
145.261
 20
212.811
 11
145.962
 21
210.962
  0
LINE
  8
0
 10
145.962
 20
210.962
 11
146.2
 21
209
  0
LINE
  8
0
 10
146.2
 20
209
 11
145.962
 21
207.038
  0
LINE
  8
0
 10
145.962
 20
207.038
 11
145.261
 21
205.189
  0
LINE
  8
0
 10
145.261
 20
205.189
 11
144.138
 21
203.562
  0
LINE
  8
0
 10
144.138
 20
203.562
 11
142.658
 21
202.252
  0
LINE
  8
0
 10
142.658
 20
202.252
 11
140.908
 21
201.333
  0
LINE
  8
0
 10
140.908
 20
201.333
 11
138.988
 21
200.86
  0
LINE
  8
0
 10
138.988
 20
200.86
 11
137.012
 21
200.86
  0
ENDSEC
  0
SECTION
  2
OBJECTS
  0
DICTIONARY
  0
ENDSEC
  0
EOF
